<svg id="SvgjsSvg1040" width="288" height="288" xmlns="http://www.w3.org/2000/svg" version="1.1" xmlns:xlink="http://www.w3.org/1999/xlink" xmlns:svgjs="http://svgjs.com/svgjs"><defs id="SvgjsDefs1041"></defs><g id="SvgjsG1042"><svg xmlns="http://www.w3.org/2000/svg" viewBox="0 0 24 24" width="288" height="288"><g data-name="Layer 2" fill="#ffffff" class="color000 svgShape"><g data-name="moon" fill="#ffffff" class="color000 svgShape"><rect width="24" height="24" opacity="0" fill="#ffffff" class="color000 svgShape"></rect><path d="M12.3 22h-.1a10.31 10.31 0 0 1-7.34-3.15 10.46 10.46 0 0 1-.26-14 10.13 10.13 0 0 1 4-2.74 1 1 0 0 1 1.06.22 1 1 0 0 1 .24 1 8.4 8.4 0 0 0 1.94 8.81 8.47 8.47 0 0 0 8.83 1.94 1 1 0 0 1 1.27 1.29A10.16 10.16 0 0 1 19.6 19a10.28 10.28 0 0 1-7.3 3z" fill="#ffffff" class="color000 svgShape"></path></g></g></svg></g></svg>