<svg width="115" height="12" viewBox="0 0 115 12" fill="none" xmlns="http://www.w3.org/2000/svg">
<path d="M4.27832 11V3.45312H0.621094V0.889648H11.8662V3.45312H8.19531V11H4.27832ZM13.0078 11V0.889648H23.7197V3.37109H16.9248V4.57422H22.4277V7.06934H16.9248V8.39551H24.0547V11H13.0078ZM33.7412 5.13477C33.6774 4.51042 33.4564 4.03418 33.0781 3.70605C32.6999 3.37793 32.1826 3.21387 31.5264 3.21387C30.6878 3.21387 30.0452 3.44857 29.5986 3.91797C29.1566 4.38737 28.9355 5.06413 28.9355 5.94824C28.9355 6.8278 29.1566 7.5 29.5986 7.96484C30.0452 8.42969 30.6878 8.66211 31.5264 8.66211C32.1325 8.66211 32.6201 8.52539 32.9893 8.25195C33.363 7.97396 33.609 7.5638 33.7275 7.02148H38.2461C38.041 8.42057 37.3688 9.47786 36.2295 10.1934C35.0947 10.9089 33.527 11.2666 31.5264 11.2666C29.2796 11.2666 27.5843 10.82 26.4404 9.92676C25.2965 9.02897 24.7246 7.7028 24.7246 5.94824C24.7246 4.18913 25.2965 2.86296 26.4404 1.96973C27.5843 1.07194 29.2796 0.623047 31.5264 0.623047C33.6227 0.623047 35.2451 1.0127 36.3936 1.79199C37.542 2.56673 38.1504 3.68099 38.2188 5.13477H33.7412ZM39.709 11V0.889648H43.626V4.38965H48.0967V0.889648H52.0137V11H48.0967V6.91211H43.626V11H39.709ZM54.2148 11V0.889648H58.8496L62.7529 6.71387V0.889648H66.5469V11H62.1514L57.9062 5.08008V11H54.2148ZM68.7617 11V0.889648H72.6787V11H68.7617ZM83.3154 5.13477C83.2516 4.51042 83.0306 4.03418 82.6523 3.70605C82.2741 3.37793 81.7568 3.21387 81.1006 3.21387C80.262 3.21387 79.6195 3.44857 79.1729 3.91797C78.7308 4.38737 78.5098 5.06413 78.5098 5.94824C78.5098 6.8278 78.7308 7.5 79.1729 7.96484C79.6195 8.42969 80.262 8.66211 81.1006 8.66211C81.7067 8.66211 82.1943 8.52539 82.5635 8.25195C82.9372 7.97396 83.1833 7.5638 83.3018 7.02148H87.8203C87.6152 8.42057 86.943 9.47786 85.8037 10.1934C84.6689 10.9089 83.1012 11.2666 81.1006 11.2666C78.8538 11.2666 77.1585 10.82 76.0146 9.92676C74.8708 9.02897 74.2988 7.7028 74.2988 5.94824C74.2988 4.18913 74.8708 2.86296 76.0146 1.96973C77.1585 1.07194 78.8538 0.623047 81.1006 0.623047C83.1969 0.623047 84.8193 1.0127 85.9678 1.79199C87.1162 2.56673 87.7246 3.68099 87.793 5.13477H83.3154ZM89.2832 11V0.889648H93.2002V4.38965H97.6709V0.889648H101.588V11H97.6709V6.91211H93.2002V11H89.2832ZM103.803 11V0.889648H114.515V3.37109H107.72V4.57422H113.223V7.06934H107.72V8.39551H114.85V11H103.803Z" fill="white"/>
</svg>
