<svg width="1008" height="439" viewBox="0 0 1008 439" fill="none" xmlns="http://www.w3.org/2000/svg">
<path d="M316.674 242.551C319.246 238.713 321.619 235.201 323.966 231.663C328.471 224.838 331.353 223.992 338.729 227.263C345.334 230.122 350.835 235.042 354.41 241.289C357.984 247.535 359.44 254.771 358.558 261.913C357.834 269.013 355.041 275.743 350.526 281.27C349.528 282.498 349.066 283.396 350.526 284.682C365.751 298.002 364.444 331.292 337.695 341.382C317.22 349.1 296.981 347.325 278.17 335.775C265.57 328.026 257.359 316.445 252.398 302.611C250.298 296.794 252.991 292.584 258.971 291.586C262.216 291.061 264.405 292.836 266.127 295.177C267.284 296.876 268.272 298.683 269.077 300.574C274.642 312.539 282.549 322.383 295.222 327.102C308.484 332.037 321.94 332.841 334.807 325.627C343.207 320.902 347.066 310.14 344 300.999C343.65 299.99 343.198 299.019 342.651 298.101C340.708 294.762 340.136 294.631 336.876 296.589C329.998 300.705 321.126 298.584 317.818 292.053C315.456 287.328 316.348 280.677 319.834 277.075C323.509 273.269 330.098 271.904 334.87 274.02C335.92 274.497 336.813 275.07 337.873 273.852C344.698 266.082 346.636 252.027 336.787 244.131C334.44 242.257 334.251 242.273 332.713 244.782C330.765 247.969 328.88 251.203 326.806 254.306C323.347 259.488 317.467 260.259 313.298 259.031C310.537 258.238 308.956 256.159 307.45 253.865C304.993 250.132 302.861 245.958 299.648 242.992C291.589 235.558 278.123 237.112 271.33 245.717C271.118 245.939 270.941 246.192 270.805 246.468C270.526 247.213 270.311 247.98 270.075 248.741C270.844 248.903 271.63 248.974 272.416 248.951C278.344 248.09 284.166 248.184 289.631 250.967C296.577 254.505 300.105 260.417 300.556 268.035C301.202 278.865 296.75 287.596 288.786 294.668C285.541 297.545 281.788 298.044 278.669 296.243C274.726 293.943 273.692 288.987 276.532 285.412C277.908 283.685 279.556 282.178 281.047 280.545C283.867 277.458 285.683 273.941 285.61 269.641C285.536 265.441 282.864 262.149 278.695 261.955C275.162 261.787 271.592 262.296 268.048 262.585C266.92 262.68 265.817 263.163 264.688 263.247C257.769 263.73 253.138 259.078 253.868 252.012C254.813 242.719 259.396 235.348 267.166 230.329C278.538 222.979 290.576 221.961 302.756 228.297C307.686 230.865 311.466 234.928 314.527 239.606C315.136 240.488 315.823 241.359 316.674 242.551Z" fill="#F37256"/>
<path d="M444.883 238.039H429.018V239.016C429.018 239.541 429.018 240.066 429.018 240.617V241.798C429.018 241.929 429.018 242.055 429.018 242.181C429.018 243.588 429.018 244.985 429.076 246.381C429.165 247.956 428.498 248.607 427.044 249.069C410.569 254.288 395.512 262.236 380.991 271.45C372.901 276.585 370.669 290.67 382.041 296.487C397.408 304.362 412.197 313.287 427.28 321.687C428.719 322.491 429.154 323.399 429.081 324.895C428.981 326.766 428.981 328.641 429.081 330.513C429.37 335.238 432.336 338.004 437.045 337.989C441.859 337.989 444.589 335.364 444.831 330.507C444.878 329.536 444.862 328.565 444.862 327.588V252.792C444.862 248.749 444.894 244.701 444.862 240.659C444.86 240.46 444.872 240.262 444.899 240.066L444.883 238.039ZM428.782 305.549L390.488 283.919C402.411 275.393 415.069 268.956 428.782 263.617V305.549Z" fill="#F37256"/>
<path d="M416.883 339.734C415.453 339.738 414.05 339.341 412.833 338.59C411.616 337.839 410.633 336.762 409.995 335.481C408.877 334.505 405.003 331.565 392.87 324.981C384.995 320.697 377.645 317.069 377.561 317.033C376.667 316.599 375.869 315.992 375.213 315.246C374.556 314.501 374.054 313.633 373.737 312.692C373.419 311.751 373.292 310.756 373.363 309.765C373.433 308.774 373.7 307.808 374.148 306.921C375.079 305.126 376.677 303.768 378.598 303.14C380.52 302.511 382.612 302.663 384.423 303.561C384.795 303.745 393.584 308.087 402.572 313.048C407.948 316.019 412.279 318.597 415.45 320.713C417.186 321.839 418.841 323.082 420.406 324.435C422.06 325.916 424.281 328.273 424.527 331.675C424.591 332.669 424.459 333.667 424.137 334.61C423.815 335.553 423.31 336.423 422.651 337.171C421.992 337.918 421.192 338.529 420.297 338.967C419.402 339.405 418.429 339.662 417.435 339.723L416.883 339.734Z" fill="#F37256"/>
<path d="M759.721 225.752H734.8C734.481 221.559 733.636 217.422 732.285 213.44C730.55 208.454 727.968 203.804 724.652 199.696C720.511 194.666 715.599 190.325 710.098 186.833C697.577 178.675 681.707 172.606 666.555 170.186C659.237 169.015 652.433 168.8 646.883 169.556C639.749 170.532 634.504 173.078 631.301 177.126C628.88 180.093 627.058 183.502 625.936 187.164C624.903 190.594 624.751 194.228 625.495 197.732C625.595 198.2 625.715 198.662 625.852 199.118C625.091 199.082 624.337 198.967 623.6 198.777C616.25 194.908 613.656 189.327 613.656 185.363C613.656 183.333 612.85 181.386 611.414 179.951C609.979 178.515 608.032 177.709 606.002 177.709C603.971 177.709 602.024 178.515 600.589 179.951C599.153 181.386 598.347 183.333 598.347 185.363C598.403 190.727 600.047 195.954 603.072 200.384C606.519 205.356 611.158 209.385 616.565 212.102C619.851 213.813 624.482 214.422 632.561 214.202L633.464 214.175C634.546 215.761 635.738 217.336 637.04 218.9C638.987 221.246 641.066 223.479 643.266 225.589C625.416 225.589 612.086 225.547 609.834 225.521C609.398 225.521 608.632 224.544 608.595 223.993C608.518 223.064 608.499 222.131 608.537 221.2C608.474 214.763 604.862 211.897 598.426 213.162C595.391 213.761 593.417 215.876 593.27 218.937C592.95 225.573 593.27 228.387 595.402 234.787C595.52 235.304 595.591 235.831 595.612 236.362C594.892 235.778 594.314 235.038 593.921 234.199C590.771 228.182 585.857 225.2 578.912 225.578C576.78 225.694 574.638 225.715 572.501 225.715C545.702 225.676 518.902 225.648 492.103 225.631C490.297 225.631 489.961 225.011 489.971 223.41C489.971 220.344 490.061 217.22 489.557 214.212C488.969 210.679 485.593 208.784 481.535 209.167C477.172 209.576 474.82 211.697 474.652 215.567C474.374 222.129 474.778 228.629 476.857 234.939C476.958 235.408 477.009 235.887 477.009 236.367C475.769 234.87 474.646 233.28 473.649 231.611C471.024 227.495 467.024 225.767 462.246 225.626C459.096 225.531 455.988 225.626 452.859 225.626C424.159 225.626 395.45 225.626 366.733 225.626C365.053 225.609 363.374 225.689 361.703 225.867C357.908 226.303 356.102 228.818 356.375 233.102C356.6 236.582 358.879 238.672 362.528 238.703C365.279 238.73 414.398 238.74 426.683 238.677C427.691 238.677 429.019 238.719 429.029 239.255H444.884V239.018C451.594 239.018 458.051 238.793 464.309 239.102C468.336 239.302 471.491 241.486 472.347 245.612C473.037 248.923 473.394 252.295 473.413 255.677C473.507 279.722 473.46 303.772 473.465 327.822C473.443 328.873 473.477 329.925 473.565 330.972C474.043 335.697 476.957 338.18 481.844 338.144C486.732 338.107 489.389 335.839 489.935 331.067C490.006 330.244 490.031 329.419 490.008 328.594C490.008 317.544 490.008 306.497 490.008 295.451C490.008 277.412 490.045 259.378 489.961 241.339C489.961 239.307 490.559 238.74 492.544 238.84C495.82 238.997 499.117 238.803 502.388 238.997C503.553 239.071 505.013 239.522 505.753 240.357C509.748 244.877 513.544 249.576 517.429 254.196C518.453 255.414 518.243 256.296 517.119 257.456C513.035 261.62 511.265 266.681 511.586 272.45C511.985 279.606 515.534 283.428 522.726 284.457C525.114 284.824 527.555 284.371 529.653 283.173C531.75 281.975 533.38 280.101 534.276 277.858C535.813 273.988 536.2 269.757 535.389 265.673C534.943 263.405 535.793 263.111 537.71 263.121C546.535 263.153 552.966 268.712 554.063 277.343C555.318 287.25 551.186 295.319 542.949 298.721C537.557 300.947 531.877 301.346 526.091 300.863C522.989 300.611 519.849 300.244 516.762 300.428C513.182 300.643 510.662 303.672 510.315 307.211C509.879 311.668 512.226 314.314 515.885 316.424C529.184 324.089 542.408 331.875 555.701 339.524C557.41 340.515 559.245 341.269 561.156 341.766C565.356 342.853 568.947 340.259 569.519 335.991C569.95 332.804 568.811 330.311 566.081 328.699C557.896 323.927 549.674 319.202 541.442 314.477C540.404 313.949 539.337 313.481 538.245 313.075C539 312.472 539.89 312.063 540.839 311.883C544.073 311.038 547.385 310.424 550.514 309.311C573.614 301.11 573.856 274.204 564.59 261.809C556.631 251.162 545.291 248.621 532.649 249.902C531.184 250.049 530.486 249.818 529.787 248.51C528.443 245.996 526.832 243.612 525.346 241.16C524.942 240.494 524.574 239.801 524.044 238.866C525.094 238.803 525.782 238.735 526.448 238.735C541.796 238.735 557.143 238.735 572.491 238.735C575.767 238.735 579.053 238.835 582.324 239.034C586.955 239.318 590.01 241.607 590.987 246.006C591.65 249.158 591.978 252.371 591.963 255.593C592.037 279.79 592 303.987 592.021 328.19C592.011 329.615 592.13 331.038 592.378 332.442C592.637 333.83 593.324 335.103 594.343 336.081C595.361 337.059 596.661 337.694 598.058 337.897C604.883 339.068 608.453 336.133 608.558 329.318C608.558 328.568 608.558 327.817 608.558 327.066C608.558 298.433 608.544 269.799 608.516 241.166C608.516 239.433 608.879 238.798 610.763 238.819C617.552 238.898 624.345 238.819 631.139 238.777C631.874 238.777 632.603 238.861 633.538 238.919V245.581C633.538 267.851 633.501 290.127 633.575 312.403C633.611 322.903 639.134 330.563 649.267 333.786C660.475 337.346 671.658 336.464 681.88 330.914C700.365 320.882 708.13 304.664 707.605 284.321C707.426 277.916 705.395 271.831 700.932 266.948C693.089 258.375 683.219 256.265 672.157 259.031C664.744 260.885 660.722 266.591 661.09 274.078C661.358 279.564 665.253 283.612 670.876 284.242C676.908 284.924 681.659 281.953 683.119 276.488C683.403 275.115 683.604 273.726 683.723 272.33C687.922 272.975 690.915 275.805 691.723 281.008C693.823 294.584 689.477 306.05 679.124 315.185C674.021 319.69 667.841 321.601 660.995 321.428C653.315 321.239 650.028 317.957 650.028 310.403C650.028 290.698 650.028 270.994 650.028 251.293V245.602V238.971L697.934 238.793H701.347C701.738 238.851 702.133 238.881 702.528 238.882C702.923 238.882 703.318 238.852 703.709 238.793H719.643C719.643 239.249 719.643 239.696 719.643 240.142V330.164C719.643 332.194 720.449 334.141 721.885 335.576C723.32 337.012 725.267 337.818 727.297 337.818C729.328 337.818 731.275 337.012 732.71 335.576C734.146 334.141 734.952 332.194 734.952 330.164V240.142C734.952 239.717 734.952 239.26 734.952 238.793H758.635C759.626 238.833 760.619 238.805 761.606 238.709C763.785 238.404 765.491 237.375 766.331 235.254C768.274 229.994 765.397 225.794 759.721 225.752ZM648.989 184.46C653.047 183.909 658.271 184.109 664.098 185.038C676.992 187.101 691.031 192.461 701.651 199.381C709.999 204.82 715.301 210.999 717.79 218.281C718.608 220.696 719.156 223.194 719.422 225.731H710.277C710.373 222.467 710.041 219.206 709.29 216.029C707.779 210.129 704.397 204.877 699.651 201.061C695.64 197.722 689.183 196.336 678.068 196.336C670.02 196.367 660.607 197.144 651.498 197.911C648.673 198.147 645.912 198.373 643.271 198.572C642.769 198.193 642.307 197.764 641.891 197.291C640.615 193.133 641.145 190.676 641.229 190.346C641.352 189.983 641.445 189.611 641.507 189.233C642.035 188.225 642.661 187.272 643.376 186.387C643.376 186.387 644.442 185.064 648.989 184.439V184.46ZM666.718 225.216C661.449 221.605 656.537 217.498 652.049 212.952L652.769 212.889C661.169 212.196 669.821 211.477 677.055 211.388C686.72 211.272 689.398 212.385 689.86 212.621C694.511 216.548 695.036 220.843 694.952 225.683H667.306C667.133 225.5 666.928 225.342 666.718 225.195V225.216Z" fill="#F37256"/>
<path d="M472.832 248.489L473.247 295.34L488.787 241.848H474.491L472.832 248.489Z" fill="#F37256"/>
<path d="M703.637 270.828C703.637 270.828 712.036 285.428 703.637 307.053V270.828Z" fill="#F37256"/>
<path d="M472.836 248.489C473.004 246.751 474.306 241.664 474.306 241.664L489.158 241.848L473.66 296.626C473.66 296.626 473.844 262.328 472.836 248.489Z" fill="#F37256"/>
<path d="M675.721 258.301C676.141 258.758 681.292 270.449 683.166 276.067C683.166 282.892 673.401 286.85 666.781 283.06H671.059C671.059 283.06 666.775 271.179 664.234 263.75C668.634 258.794 675.721 258.301 675.721 258.301Z" fill="#F37256"/>
<path d="M742.66 241.848H756.651V317.448H742.66V241.848Z" fill="#F9F6F6"/>
<path d="M277.908 248.451C281.263 248.38 284.602 248.935 287.752 250.089C290.086 251.075 292.262 252.4 294.21 254.022C300.145 255.384 305.341 258.949 308.747 263.997H325.5C321.62 253.171 307.833 240.309 288.834 240.309C283.667 240.299 278.545 241.262 273.735 243.149C272.879 243.894 270.721 245.049 270.086 248.703C273.75 249.491 273.105 248.682 277.908 248.451Z" fill="#F9F6F6"/>
<path d="M279.945 278.915V291.987H311.603C309.548 296.163 306.362 299.679 302.409 302.135C298.455 304.59 293.892 305.888 289.238 305.879C271.267 305.879 262.584 291.273 262.584 279.734C262.626 273.425 264.852 267.325 268.884 262.472C266.621 262.729 261.397 263.679 258.783 262.136C256.168 260.592 255.669 259.616 255.008 258.461C250.827 264.734 248.602 272.106 248.613 279.645C248.613 302.314 267.608 318.962 289.259 318.962C310.401 318.962 329.29 302.109 329.29 280.563V278.925L279.945 278.915Z" fill="#F9F6F6"/>
<path d="M377.369 241.814V289.846C377.369 293.621 377.369 305.88 364.297 305.88C351.224 305.88 351.224 293.621 351.224 289.846V241.845H337.238V289.846C337.238 299.139 339.485 304.856 341.932 308.127C344.597 311.532 348.01 314.28 351.906 316.157C355.802 318.034 360.077 318.99 364.402 318.952C374.713 318.952 382.577 313.844 386.977 307.717C390.552 302.714 391.366 295.973 391.366 289.867V241.641C386.189 241.74 383.701 241.824 377.369 241.814Z" fill="#F9F6F6"/>
<path d="M538.293 312.952C538.681 313.157 539.059 313.378 539.437 313.598C539.962 313.861 540.519 314.123 541.012 314.443L541.459 314.685C542.735 315.223 543.974 315.847 545.165 316.554L554.017 316.412L550.961 309.109C547.339 310.243 541.511 311.53 540.351 311.95C539.644 312.238 538.956 312.573 538.293 312.952Z" fill="#F37256"/>
<path d="M522.374 241.848H511.459L504.587 258.364V258.196L479.996 317.269H490.181V317.421H495.431L503.474 297.912H530.538L532.144 301.792C534.653 301.67 537.144 301.308 539.584 300.711C543.012 299.802 544.97 298.684 545.884 298.012L522.374 241.848ZM508.199 284.74L516.778 261.561H516.982L525.561 284.74H508.199Z" fill="#F9F6F6"/>
<path d="M603.161 241.426V272.165H576.102V241.426H562.111V258.751C562.333 258.936 562.535 259.144 562.715 259.37C564.288 260.741 565.543 262.44 566.39 264.347C567.166 265.663 567.743 267.088 568.101 268.574C568.337 269.235 568.563 269.891 568.789 270.521C569.641 272.856 570.15 275.301 570.301 277.782C570.472 280.202 570.454 282.631 570.248 285.048C569.827 287.719 569.15 290.344 568.227 292.886C566.846 296.246 563.807 301.213 562.541 301.58C562.394 301.817 562.247 302.053 562.09 302.284V316.984H576.081V285.221H603.139V316.984H617.131V241.426H603.161Z" fill="#F9F6F6"/>
<path d="M703.866 254.92H691.891V241.848H731.953V254.92H717.857V317.421H703.866V254.92Z" fill="#F9F6F6"/>
<path d="M692.653 298.951C690.517 294.467 685.508 281.815 683.167 276.082L668.278 240.539H657.395L626.062 315.808H641.424L649.462 296.383H676.415L684.448 315.808H699.825L692.653 298.951ZM654.15 283.258L662.692 260.158H662.897L671.438 283.258H654.15Z" fill="#F9F6F6"/>
<path d="M473.869 244.326L461.316 294.647H461.111L448.448 241.848H438.237L425.249 294.647H425.044L411.971 241.848H397.691L399.55 248.211C402.569 259.115 404.732 265.294 408.102 277.611L419.752 317.442H430.777L443.235 267.504H443.44L455.699 317.421H466.829L473.869 293.187V244.326Z" fill="#F9F6F6"/>
<path d="M296.35 398.206H323.23V393.726H296.35V398.206ZM320.038 378.046V417.246H324.798V378.046H320.038ZM293.718 378.046V417.246H298.478V378.046H293.718ZM337.502 405.486H358.222L356.542 401.006H339.182L337.502 405.486ZM347.75 386.894L354.47 402.686L354.918 403.806L360.63 417.246H365.95L347.75 376.086L329.55 417.246H334.87L340.694 403.47L341.142 402.462L347.75 386.894ZM370.718 378.046V417.246H390.878V412.766H375.478V378.046H370.718ZM398.561 382.526H416.089V378.046H398.561V382.526ZM398.561 398.206H415.529V393.726H398.561V398.206ZM395.929 378.046V417.246H400.689V378.046H395.929ZM446.15 390.758L458.918 413.606L471.686 390.758L474.598 417.246H479.358L474.598 376.086L458.918 404.478L443.238 376.086L438.478 417.246H443.238L446.15 390.758ZM489.806 405.486H510.526L508.846 401.006H491.486L489.806 405.486ZM500.054 386.894L506.774 402.686L507.222 403.806L512.934 417.246H518.254L500.054 376.086L481.854 417.246H487.174L492.998 403.47L493.446 402.462L500.054 386.894ZM530.023 397.926L543.463 417.246H549.343L535.343 397.926H530.023ZM523.023 378.046V417.246H527.783V378.046H523.023ZM525.655 382.246H533.663C535.343 382.246 536.818 382.545 538.087 383.142C539.394 383.739 540.402 384.598 541.111 385.718C541.858 386.838 542.231 388.201 542.231 389.806C542.231 391.411 541.858 392.774 541.111 393.894C540.402 395.014 539.394 395.873 538.087 396.47C536.818 397.067 535.343 397.366 533.663 397.366H525.655V401.566H533.663C536.202 401.566 538.46 401.099 540.439 400.166C542.455 399.195 544.042 397.833 545.199 396.078C546.394 394.286 546.991 392.195 546.991 389.806C546.991 387.379 546.394 385.289 545.199 383.534C544.042 381.779 542.455 380.435 540.439 379.502C538.46 378.531 536.202 378.046 533.663 378.046H525.655V382.246ZM558.111 405.486H578.831L577.151 401.006H559.791L558.111 405.486ZM568.359 386.894L575.079 402.686L575.527 403.806L581.239 417.246H586.559L568.359 376.086L550.159 417.246H555.479L561.303 403.47L561.751 402.462L568.359 386.894ZM583.47 382.526H593.55V417.246H598.31V382.526H608.39V378.046H583.47V382.526ZM616.053 398.206H642.933V393.726H616.053V398.206ZM639.741 378.046V417.246H644.501V378.046H639.741ZM613.421 378.046V417.246H618.181V378.046H613.421ZM656.253 397.646C656.253 394.697 656.887 392.065 658.157 389.75C659.463 387.435 661.237 385.606 663.477 384.262C665.717 382.918 668.255 382.246 671.093 382.246C673.967 382.246 676.506 382.918 678.709 384.262C680.949 385.606 682.703 387.435 683.973 389.75C685.279 392.065 685.933 394.697 685.933 397.646C685.933 400.595 685.279 403.227 683.973 405.542C682.703 407.857 680.949 409.686 678.709 411.03C676.506 412.374 673.967 413.046 671.093 413.046C668.255 413.046 665.717 412.374 663.477 411.03C661.237 409.686 659.463 407.857 658.157 405.542C656.887 403.227 656.253 400.595 656.253 397.646ZM651.213 397.646C651.213 400.483 651.698 403.134 652.669 405.598C653.677 408.062 655.077 410.209 656.869 412.038C658.661 413.83 660.77 415.249 663.197 416.294C665.623 417.302 668.255 417.806 671.093 417.806C673.967 417.806 676.599 417.302 678.989 416.294C681.415 415.249 683.525 413.83 685.317 412.038C687.109 410.209 688.49 408.062 689.461 405.598C690.469 403.134 690.973 400.483 690.973 397.646C690.973 394.771 690.469 392.121 689.461 389.694C688.49 387.23 687.109 385.102 685.317 383.31C683.525 381.481 681.415 380.062 678.989 379.054C676.599 378.009 673.967 377.486 671.093 377.486C668.255 377.486 665.623 378.009 663.197 379.054C660.77 380.062 658.661 381.481 656.869 383.31C655.077 385.102 653.677 387.23 652.669 389.694C651.698 392.121 651.213 394.771 651.213 397.646ZM727.375 378.046V407.222L697.695 376.086V417.246H702.455V388.07L732.135 419.206V378.046H727.375Z" fill="#F9F6F6"/>
</svg>
